<svg xmlns="http://www.w3.org/2000/svg" xmlns:xlink="http://www.w3.org/1999/xlink" aria-hidden="true" role="img" class="iconify iconify--logos" width="35.93" height="32" preserveAspectRatio="xMidYMid meet" viewBox="0 0 256 228"><path fill="#00D8FF" d="M210.483 73.824a171.49 171.49 0 0 0-8.24-2.597c.465-1.9.893-3.777 1.273-5.621c6.238-30.281 2.16-54.676-11.769-62.708c-13.355-7.7-35.196.329-57.254 19.526a171.23 171.23 0 0 0-6.375 5.848a155.866 155.866 0 0 0-4.241-3.917C100.759 3.829 77.587-4.822 63.673 3.233C50.33 10.957 46.379 33.89 52.235 63.588a170.974 170.974 0 0 0 1.892 8.48c-3.28.932-6.445 1.924-9.474 2.98C17.309 86.698 0 98.307 0 110.027c0 11.721 17.309 23.33 44.653 34.166a145.52 145.52 0 0 0 6.594 2.165a168.417 168.417 0 0 0-2.01 9.138c-5.676 29.413-1.173 51.812 12.134 59.343c13.744 7.776 35.859-.22 57.9-19.8a145.567 145.567 0 0 0 5.342-4.923a168.933 168.933 0 0 0 6.92 6.314c21.714 18.722 43.246 26.282 56.54 18.586c13.731-7.949 18.194-31.214 12.4-61.268a145.016 145.016 0 0 0-1.535-6.842c1.62-.48 3.21-.974 4.76-1.488c27.344-10.836 44.653-22.445 44.653-34.166c0-11.72-17.309-23.329-44.653-34.165Zm-6.365 70.984c-1.4.555-2.836 1.098-4.3 1.625c-3.24-10.257-7.612-21.163-12.963-32.432c5.106-11 9.31-21.767 12.459-31.957c2.619.8 5.16 1.634 7.61 2.518c23.69 8.98 38.14 18.343 38.14 25.871c0 7.528-14.45 16.891-38.14 25.871Zm-10.514 20.834c2.562 12.94 2.927 24.64 1.23 33.787c-1.524 8.219-4.59 13.698-8.382 15.893c-8.067 4.67-25.32-1.4-43.927-17.412a134.17 134.17 0 0 1-6.437-5.87c7.214-7.889 14.423-17.06 21.459-27.246c12.376-1.092 24.068-2.921 34.671-5.345a134.02 134.02 0 0 1 1.386 6.495Zm-31.229 12.268a347.8 347.8 0 0 1-7.785 12.803c-12.316 1.247-25.159 1.851-38.216 1.851c-13.058 0-25.9-.604-38.217-1.851a348.128 348.128 0 0 1-7.785-12.803c4.515-1.354 9.422-2.88 14.67-4.58c1.24 2.58 2.56 5.093 3.954 7.533c6.078 10.788 13.04 20.456 20.358 28.512c7.32-8.056 14.28-17.724 20.36-28.512c1.393-2.44 2.714-4.953 3.954-7.533c5.248 1.7 10.155 3.226 14.67 4.58Zm-89.326 27.268c-8.067 4.67-25.32-1.4-43.927-17.412a134.17 134.17 0 0 1-6.437-5.87c7.214-7.889 14.423-17.06 21.459-27.246c12.376-1.092 24.068-2.921 34.671-5.345a134.02 134.02 0 0 1 1.386 6.495c2.562 12.94 2.927 24.64 1.23 33.787c-1.524 8.219-4.59 13.698-8.382 15.893Zm-54.99-49.277c5.106-11 9.31-21.767 12.459-31.957c2.619.8 5.16 1.634 7.61 2.518c23.69 8.98 38.14 18.343 38.14 25.871c0 7.528-14.45 16.891-38.14 25.871a145.52 145.52 0 0 1-4.76-1.488c-3.24-10.257-7.612-21.163-12.963-32.432c5.106-11 9.31-21.767 12.459-31.957Zm8.382-82.893c3.792 2.195 6.858 7.674 8.382 15.893c1.697 9.147 1.332 20.847-1.23 33.787a134.02 134.02 0 0 1-1.386 6.495c-10.603-2.424-22.295-4.253-34.671-5.345c-7.036-10.186-14.245-19.357-21.459-27.246a134.17 134.17 0 0 1 6.437-5.87c18.607-16.012 35.86-22.082 43.927-17.412ZM128 152.026c-23.196 0-42-18.804-42-42s18.804-42 42-42s42 18.804 42 42s-18.804 42-42 42Zm0-64c-12.15 0-22 9.85-22 22s9.85 22 22 22s22-9.85 22-22s-9.85-22-22-22Z"></path></svg>